<svg width="20" height="20" viewBox="0 0 20 20" fill="none" xmlns="http://www.w3.org/2000/svg">
<path d="M10 16.9375H10.0001C11.8394 16.9354 13.6027 16.2038 14.9033 14.9033C16.2038 13.6027 16.9354 11.8394 16.9375 10.0001V10C16.9375 8.62789 16.5306 7.2866 15.7683 6.14573C15.006 5.00487 13.9225 4.11567 12.6549 3.59059C11.3872 3.0655 9.99231 2.92812 8.64656 3.1958C7.30082 3.46349 6.06468 4.12422 5.09445 5.09445C4.12422 6.06467 3.46349 7.30082 3.19581 8.64656C2.92812 9.9923 3.06551 11.3872 3.59059 12.6549C4.11567 13.9225 5.00487 15.006 6.14573 15.7683C7.2866 16.5306 8.6279 16.9375 10 16.9375ZM10.625 10.5625H10.5625V10.625V13.125C10.5625 13.2742 10.5032 13.4173 10.3978 13.5227C10.2923 13.6282 10.1492 13.6875 10 13.6875C9.85082 13.6875 9.70775 13.6282 9.60226 13.5227C9.49677 13.4173 9.4375 13.2742 9.4375 13.125V10.625V10.5625H9.375H6.875C6.72582 10.5625 6.58275 10.5032 6.47726 10.3977C6.37177 10.2923 6.3125 10.1492 6.3125 10C6.3125 9.85082 6.37177 9.70774 6.47726 9.60225C6.58275 9.49676 6.72582 9.4375 6.875 9.4375H9.375H9.4375V9.375V6.875C9.4375 6.72582 9.49677 6.58274 9.60226 6.47725C9.70775 6.37176 9.85082 6.3125 10 6.3125C10.1492 6.3125 10.2923 6.37176 10.3978 6.47725C10.5032 6.58274 10.5625 6.72582 10.5625 6.875V9.375V9.4375H10.625H13.125C13.2742 9.4375 13.4173 9.49676 13.5228 9.60225C13.6282 9.70774 13.6875 9.85082 13.6875 10C13.6875 10.1492 13.6282 10.2923 13.5228 10.3977C13.4173 10.5032 13.2742 10.5625 13.125 10.5625H10.625ZM5.52072 3.29628C6.84658 2.41036 8.40537 1.93751 9.99997 1.9375C12.1376 1.93977 14.187 2.78994 15.6985 4.30146C17.2101 5.813 18.0602 7.86243 18.0625 10.0001C18.0625 11.5947 17.5896 13.1534 16.7037 14.4793C15.8178 15.8052 14.5586 16.8385 13.0854 17.4488C11.6122 18.059 9.99106 18.2187 8.42709 17.9076C6.86312 17.5965 5.42652 16.8286 4.29896 15.701C3.17139 14.5735 2.40352 13.1369 2.09242 11.5729C1.78133 10.0089 1.94099 8.38784 2.55122 6.91461C3.16146 5.44139 4.19485 4.1822 5.52072 3.29628Z" fill="white" stroke="white" stroke-width="0.125"/>
</svg>
