<svg width="20" height="14" viewBox="0 0 20 14" fill="none" xmlns="http://www.w3.org/2000/svg">
<path d="M9.77935 9.26072C10.5646 8.60072 11.1278 7.7152 11.3926 6.72425C11.6575 5.73329 11.6111 4.68486 11.2599 3.72113C10.9087 2.75741 10.2695 1.92502 9.42918 1.33686C8.58882 0.748699 7.5879 0.433228 6.56217 0.433228C5.53643 0.433228 4.53551 0.748699 3.69515 1.33686C2.85479 1.92502 2.21566 2.75741 1.86443 3.72113C1.5132 4.68486 1.46686 5.73329 1.73171 6.72425C1.99656 7.7152 2.55978 8.60072 3.34498 9.26072C2.11887 9.81513 1.05632 10.6761 0.25982 11.7607C0.112708 11.9612 0.0512562 12.2119 0.0889832 12.4577C0.12671 12.7034 0.260526 12.9242 0.460992 13.0713C0.661459 13.2184 0.912155 13.2798 1.15793 13.2421C1.40371 13.2044 1.62443 13.0706 1.77154 12.8701C2.3229 12.1171 3.04401 11.5046 3.87636 11.0825C4.70872 10.6603 5.62887 10.4403 6.56217 10.4403C7.49546 10.4403 8.41561 10.6603 9.24797 11.0825C10.0803 11.5046 10.8014 12.1171 11.3528 12.8701C11.4999 13.0707 11.7207 13.2046 11.9665 13.2424C12.2124 13.2802 12.4632 13.2188 12.6637 13.0717C12.8643 12.9245 12.9982 12.7038 13.036 12.4579C13.0738 12.2121 13.0124 11.9613 12.8653 11.7607C12.0683 10.6763 11.0056 9.81532 9.77935 9.26072ZM3.43716 5.43728C3.43716 4.81922 3.62044 4.21503 3.96382 3.70113C4.3072 3.18722 4.79526 2.78668 5.36628 2.55016C5.9373 2.31364 6.56563 2.25175 7.17182 2.37233C7.77801 2.49291 8.33484 2.79054 8.77187 3.22757C9.20891 3.66461 9.50654 4.22144 9.62712 4.82763C9.7477 5.43382 9.68581 6.06215 9.44929 6.63317C9.21277 7.20419 8.81223 7.69225 8.29832 8.03563C7.78442 8.37901 7.18023 8.56228 6.56217 8.56228C5.73336 8.56228 4.93851 8.23304 4.35246 7.64699C3.7664 7.06094 3.43716 6.26608 3.43716 5.43728ZM19.5387 13.0678C19.4395 13.1407 19.3268 13.1933 19.2072 13.2227C19.0876 13.2521 18.9634 13.2576 18.8417 13.239C18.7199 13.2203 18.603 13.1779 18.4977 13.1141C18.3924 13.0502 18.3007 12.9663 18.2278 12.867C17.6751 12.1154 16.9537 11.504 16.1216 11.082C15.2896 10.66 14.3701 10.4392 13.4372 10.4373C13.1885 10.4373 12.9501 10.3385 12.7743 10.1627C12.5984 9.98688 12.4997 9.74842 12.4997 9.49978C12.4997 9.25114 12.5984 9.01269 12.7743 8.83687C12.9501 8.66106 13.1885 8.56228 13.4372 8.56228C13.8973 8.56174 14.3516 8.4596 14.7677 8.26315C15.1838 8.0667 15.5514 7.7808 15.8442 7.42585C16.1369 7.07091 16.3478 6.65568 16.4615 6.20984C16.5753 5.76399 16.5891 5.29853 16.5022 4.84669C16.4152 4.39486 16.2296 3.9678 15.9585 3.59603C15.6873 3.22425 15.3375 2.91693 14.9339 2.69602C14.5302 2.4751 14.0828 2.34605 13.6235 2.31807C13.1643 2.29009 12.7045 2.36388 12.277 2.53416C12.1625 2.58104 12.0399 2.6048 11.9161 2.60405C11.7924 2.60331 11.67 2.57808 11.5561 2.52982C11.4422 2.48156 11.3389 2.41122 11.2523 2.32287C11.1657 2.23451 11.0974 2.12988 11.0514 2.01502C11.0054 1.90015 10.9826 1.77732 10.9844 1.6536C10.9861 1.52988 11.0123 1.40772 11.0614 1.29417C11.1106 1.18062 11.1817 1.07792 11.2707 0.991998C11.3598 0.906073 11.4649 0.838622 11.5801 0.793533C12.6835 0.351771 13.9082 0.317496 15.0345 0.696853C16.1609 1.07621 17.1152 1.84439 17.7265 2.86365C18.3378 3.88292 18.5661 5.0866 18.3703 6.25889C18.1745 7.43118 17.5676 8.49539 16.6583 9.26072C17.8844 9.81513 18.9469 10.6761 19.7434 11.7607C19.8891 11.9614 19.9493 12.2115 19.9109 12.4565C19.8726 12.7015 19.7387 12.9212 19.5387 13.0678Z" fill="#0D6EFD"/>
</svg>
